<?xml version="1.0" encoding="UTF-8"?>
<svg id="Calque_1" xmlns="http://www.w3.org/2000/svg" version="1.1" viewBox="0 0 40 40">
  <!-- Generator: Adobe Illustrator 30.0.0, SVG Export Plug-In . SVG Version: 2.1.1 Build 123)  -->
  <defs>
    <style>
      .st0 {
        fill: #f29542;
      }

      .st1 {
        fill: #4fbab4;
      }
    </style>
  </defs>
  <path class="st1" d="M1.61,35.72c3.85-10.5,9.18-20.48,15.69-29.57,2.82-3.94,4.45-7.51,9.44-3.48,1.86,1.5,3.42,3.71,4.22,5.97.27.77,1.06,2.85-.02,3.19-1.3.41-3.23-.57-4.54-.77-2.9,2.31-5.48,5.09-7.65,8.11-1.55,2.16-3.05,4.6-3.87,7.13l8.8-4.52c2.05-.8,3.56,1.48,4.86,2.72,3.68,3.53,7.34,7.1,10.96,10.7.24,2.03-1.08,4.17-3.04,4.79h-.43c-.49-.24-.87-.55-1.29-.9-3.87-3.18-7.5-6.68-11.34-9.89-.44-.31-.82-.41-1.36-.33-.67.09-2.7,1.65-3.34,2.14-2.68,2.05-5.19,4.51-7.58,6.89-.84.84-1.26,1.56-2.61,1.67-.96.08-4.67-.48-5.46-.96s-1.09-1.23-1.43-2.04v-.86Z"/>
  <path class="st0" d="M24.13,40h-4.2c-2.87-1.09-1.47-3.54,0-5.18.84-.94,1.77-1.88,3.11-1.31.89.37,2.66,2.48,2.92,3.41.29,1.03-.06,2.21-.93,2.84l-.92.24Z"/>
</svg>